<?xml version="1.0" encoding="UTF-8" standalone="no"?>
<svg width="60px" height="60px" viewBox="0 0 60 60" version="1.1" xmlns="http://www.w3.org/2000/svg" xmlns:xlink="http://www.w3.org/1999/xlink" xmlns:sketch="http://www.bohemiancoding.com/sketch/ns">
    <!-- Generator: Sketch 3.2.2 (9983) - http://www.bohemiancoding.com/sketch -->
    <title>CityFI</title>
    <desc>Created with Sketch.</desc>
    <defs></defs>
    <g id="stroked" stroke="none" stroke-width="1" fill="none" fill-rule="evenodd" sketch:type="MSPage">
        <g id="Tech" sketch:type="MSLayerGroup" transform="translate(-598.000000, -609.000000)" stroke="#c6c6c6" stroke-width="2">
            <g id="CityFI" transform="translate(600.000000, 615.000000)" sketch:type="MSShapeGroup">
                <path d="M0.5,48 L55.5,48" id="Line" stroke-linecap="square"></path>
                <rect id="Rectangle-395" stroke-linecap="square" x="2" y="31" width="10" height="17"></rect>
                <rect id="Rectangle-395" stroke-linecap="square" x="2" y="23" width="10" height="25"></rect>
                <rect id="Rectangle-395" stroke-linecap="square" x="12" y="5" width="10" height="43"></rect>
                <rect id="Rectangle-397" stroke-linecap="square" x="22" y="26" width="6" height="22"></rect>
                <path d="M28,18 L39,14 L39,48 L28,48 L28,18 Z" id="Rectangle-398" stroke-linecap="square" transform="translate(33.500000, 31.000000) scale(-1, 1) translate(-33.500000, -31.000000) "></path>
                <rect id="Rectangle-399" stroke-linecap="square" x="39" y="36" width="15" height="12"></rect>
                <rect id="Rectangle-400" stroke-linecap="square" x="39" y="31" width="15" height="5"></rect>
                <path d="M5,33 L5,35" id="Line"></path>
                <path d="M31,33 L31,35" id="Line"></path>
                <path d="M15,35 L15,37" id="Line"></path>
                <path d="M19,33 L19,35" id="Line"></path>
                <path d="M42,38 L42,40" id="Line"></path>
                <path d="M31,37 L31,39" id="Line"></path>
                <path d="M15,39 L15,41" id="Line"></path>
                <path d="M19,37 L19,39" id="Line"></path>
                <path d="M5,37 L5,39" id="Line"></path>
                <path d="M48,16 C48,9.92486775 43.0751322,5 37,5" id="Oval-465" stroke-linecap="round" stroke-linejoin="round"></path>
                <path d="M53,16 C53,7.163444 45.836556,0 37,0" id="Oval-466" stroke-linecap="round" stroke-linejoin="round"></path>
            </g>
        </g>
    </g>
</svg>